<svg width="128" height="48" viewBox="0 0 128 48" fill="none" xmlns="http://www.w3.org/2000/svg">
<rect width="128" height="48" rx="24" fill="url(#paint0_linear_13228_86)"/>
<path d="M41.4382 31V17.9091H43.4134V29.2997H49.3452V31H41.4382ZM55.5806 31.1982C54.6602 31.1982 53.8569 30.9872 53.1708 30.5653C52.4847 30.1435 51.9521 29.5533 51.5728 28.7947C51.1935 28.0362 51.0039 27.1499 51.0039 26.1357C51.0039 25.1172 51.1935 24.2266 51.5728 23.4638C51.9521 22.701 52.4847 22.1087 53.1708 21.6868C53.8569 21.2649 54.6602 21.054 55.5806 21.054C56.5011 21.054 57.3043 21.2649 57.9904 21.6868C58.6765 22.1087 59.2092 22.701 59.5884 23.4638C59.9677 24.2266 60.1573 25.1172 60.1573 26.1357C60.1573 27.1499 59.9677 28.0362 59.5884 28.7947C59.2092 29.5533 58.6765 30.1435 57.9904 30.5653C57.3043 30.9872 56.5011 31.1982 55.5806 31.1982ZM55.587 29.5938C56.1836 29.5938 56.6779 29.4361 57.07 29.1207C57.462 28.8054 57.7518 28.3857 57.9393 27.8615C58.131 27.3374 58.2269 26.7599 58.2269 26.1293C58.2269 25.5028 58.131 24.9276 57.9393 24.4034C57.7518 23.875 57.462 23.451 57.07 23.1314C56.6779 22.8118 56.1836 22.652 55.587 22.652C54.9862 22.652 54.4876 22.8118 54.0913 23.1314C53.6992 23.451 53.4073 23.875 53.2156 24.4034C53.0281 24.9276 52.9343 25.5028 52.9343 26.1293C52.9343 26.7599 53.0281 27.3374 53.2156 27.8615C53.4073 28.3857 53.6992 28.8054 54.0913 29.1207C54.4876 29.4361 54.9862 29.5938 55.587 29.5938ZM66.4071 34.8864C65.6273 34.8864 64.9561 34.7841 64.3936 34.5795C63.8354 34.375 63.3794 34.1044 63.0257 33.7678C62.6721 33.4311 62.4078 33.0625 62.2331 32.6619L63.8759 31.9844C63.9909 32.1719 64.1444 32.37 64.3361 32.5788C64.5321 32.7919 64.7963 32.973 65.1287 33.1222C65.4654 33.2713 65.8979 33.3459 66.4263 33.3459C67.1507 33.3459 67.7495 33.169 68.2225 32.8153C68.6955 32.4659 68.932 31.9077 68.932 31.1406V29.2102H68.8105C68.6955 29.419 68.5293 29.6513 68.312 29.907C68.0989 30.1626 67.8049 30.3842 67.4299 30.5717C67.0549 30.7592 66.5669 30.853 65.9661 30.853C65.1905 30.853 64.4917 30.6719 63.8695 30.3097C63.2516 29.9432 62.7615 29.4041 62.3993 28.6925C62.0414 27.9766 61.8624 27.0966 61.8624 26.0526C61.8624 25.0085 62.0392 24.1136 62.3929 23.3679C62.7509 22.6222 63.2409 22.0511 63.8631 21.6548C64.4853 21.2543 65.1905 21.054 65.9789 21.054C66.5882 21.054 67.0804 21.1562 67.4554 21.3608C67.8304 21.5611 68.1223 21.7955 68.3311 22.0639C68.5442 22.3324 68.7083 22.5689 68.8233 22.7734H68.964V21.1818H70.8368V31.2173C70.8368 32.0611 70.6408 32.7536 70.2488 33.2947C69.8567 33.8359 69.3262 34.2365 68.6571 34.4964C67.9924 34.7564 67.2424 34.8864 66.4071 34.8864ZM66.388 29.2678C66.9377 29.2678 67.4022 29.1399 67.7814 28.8842C68.165 28.6243 68.4547 28.2536 68.6507 27.772C68.851 27.2862 68.9512 26.7045 68.9512 26.027C68.9512 25.3665 68.8532 24.7848 68.6571 24.282C68.4611 23.7791 68.1735 23.3871 67.7942 23.1058C67.415 22.8203 66.9462 22.6776 66.388 22.6776C65.8127 22.6776 65.3333 22.8267 64.9498 23.125C64.5662 23.419 64.2765 23.8196 64.0804 24.3267C63.8887 24.8338 63.7928 25.4006 63.7928 26.027C63.7928 26.6705 63.8908 27.2351 64.0868 27.7209C64.2828 28.2067 64.5726 28.5859 64.9561 28.8587C65.3439 29.1314 65.8212 29.2678 66.388 29.2678ZM73.4 31V21.1818H75.3113V31H73.4ZM74.3652 19.6669C74.0328 19.6669 73.7473 19.5561 73.5087 19.3345C73.2743 19.1087 73.1571 18.8402 73.1571 18.5291C73.1571 18.2138 73.2743 17.9453 73.5087 17.7237C73.7473 17.4979 74.0328 17.3849 74.3652 17.3849C74.6976 17.3849 74.981 17.4979 75.2154 17.7237C75.454 17.9453 75.5733 18.2138 75.5733 18.5291C75.5733 18.8402 75.454 19.1087 75.2154 19.3345C74.981 19.5561 74.6976 19.6669 74.3652 19.6669ZM79.7937 25.1705V31H77.8825V21.1818H79.717V22.7798H79.8384C80.0643 22.2599 80.418 21.8423 80.8995 21.527C81.3853 21.2116 81.9968 21.054 82.734 21.054C83.4031 21.054 83.989 21.1946 84.4918 21.4759C84.9947 21.7528 85.3846 22.1662 85.6616 22.7159C85.9386 23.2656 86.0771 23.9453 86.0771 24.755V31H84.1658V24.9851C84.1658 24.2734 83.9805 23.7173 83.6097 23.3168C83.239 22.9119 82.7298 22.7095 82.082 22.7095C81.6388 22.7095 81.2447 22.8054 80.8995 22.9972C80.5586 23.1889 80.288 23.4702 80.0877 23.8409C79.8917 24.2074 79.7937 24.6506 79.7937 25.1705Z" fill="white"/>
<defs>
<linearGradient id="paint0_linear_13228_86" x1="64" y1="0" x2="64" y2="48" gradientUnits="userSpaceOnUse">
<stop stop-color="#06286E"/>
<stop offset="1" stop-color="#164EC0"/>
</linearGradient>
</defs>
</svg>
